<?xml version="1.0" encoding="UTF-8"?>
<svg xmlns="http://www.w3.org/2000/svg" width="65" height="97" viewBox="0 0 65 97" fill="none">
  <path d="M31.8008 26.7703C31.7185 28.1273 31.6466 29.5562 31.5542 31.0264H33.4458C33.3532 29.5564 33.2812 28.1273 33.1991 26.7703H31.8008Z" fill="white"></path>
  <path d="M29.6362 56.5609H35.3634C34.9656 52.7527 34.6474 49.1533 34.3889 45.7827H30.6105C30.3522 49.1533 30.034 52.7527 29.6362 56.5609Z" fill="white"></path>
  <path d="M40.8123 56.5609C40.3053 52.9616 39.9076 49.372 39.5795 45.7827H36.3877C36.6462 49.1533 36.9645 52.7527 37.3622 56.5609H40.8123Z" fill="white"></path>
  <path d="M37.6711 74.3995C37.5066 73.3508 37.3421 72.3229 37.1983 71.3052H27.802C27.658 72.3229 27.4935 73.351 27.3291 74.3995C30.4461 72.9476 34.6197 72.9684 37.6711 74.3995Z" fill="white"></path>
  <path d="M38.9235 69.3179H43.2189C42.3537 65.7384 41.6677 62.1488 41.1109 58.5496H37.5713C37.949 61.9698 38.3963 65.5493 38.9235 69.3179Z" fill="white"></path>
  <path d="M30.75 43.7939H34.2499C33.9616 39.9063 33.7527 36.317 33.5639 33.0159H31.4361C31.2472 36.317 31.0383 39.9063 30.75 43.7939Z" fill="white"></path>
  <path d="M35.5527 33.0159C35.7417 36.317 35.9605 39.9065 36.2389 43.7939H39.4008C39.0726 40.1846 38.8042 36.5853 38.5258 33.0159H35.5527Z" fill="white"></path>
  <path d="M29.4278 58.5496C29.0499 61.97 28.6125 65.5493 28.0854 69.3179H36.9148C36.3878 65.5493 35.9504 61.97 35.5725 58.5496H29.4278Z" fill="white"></path>
  <path d="M35.1831 26.7703C35.2655 28.1273 35.3476 29.5562 35.4297 31.0264H38.3598C38.2467 29.5974 38.1234 28.1889 37.9896 26.7703H35.1831Z" fill="white"></path>
  <path d="M39.7994 75.1189C41.4282 74.2515 43.248 74.2744 44.775 74.9957C44.4049 73.7723 44.0553 72.5387 43.7263 71.3049H39.2134C39.3984 72.5591 39.5937 73.834 39.7994 75.1189Z" fill="white"></path>
  <path d="M27.4293 58.5496H23.8897C23.3329 62.1488 22.6469 65.7384 21.7817 69.3179H26.0771C26.6041 65.5493 27.0514 61.9698 27.4293 58.5496Z" fill="white"></path>
  <path d="M25.2008 75.1189C25.4062 73.8339 25.6017 72.5591 25.7868 71.3049H21.2738C20.9448 72.5385 20.5953 73.7723 20.2251 74.9957C21.7503 74.2754 23.5702 74.2509 25.2008 75.1189Z" fill="white"></path>
  <path d="M26.6401 31.0264H29.5701C29.6523 29.5564 29.7346 28.1273 29.8168 26.7703H27.0103C26.8766 28.1889 26.7532 29.5974 26.6401 31.0264Z" fill="white"></path>
  <path d="M25.5996 43.7939H28.7615C29.0399 39.9063 29.2587 36.317 29.4477 33.0159H26.4748C26.1962 36.5853 25.9278 40.1846 25.5996 43.7939Z" fill="white"></path>
  <path d="M24.1875 56.5609H27.6376C28.0353 52.7527 28.3536 49.1533 28.6121 45.7827H25.4203C25.0923 49.372 24.6946 52.9614 24.1875 56.5609Z" fill="white"></path>
  <path d="M25.6595 12.9684H27.2672V19.4198H37.7328V12.9684H39.3405C40.2337 12.9684 40.9577 12.2441 40.9577 11.351C40.9577 10.4577 40.2337 9.73359 39.3405 9.73359H35.9202V6.88854C35.9202 5.3479 34.8946 4.0605 33.4942 3.63255V0.994304C33.4942 0.445123 33.049 0 32.4999 0C31.9507 0 31.5056 0.445123 31.5056 0.994304V3.63255C30.1051 4.06068 29.0795 5.34808 29.0795 6.88854V9.73359H25.6593C24.766 9.73359 24.042 10.4577 24.042 11.351C24.042 12.2441 24.7662 12.9684 25.6595 12.9684Z" fill="white"></path>
  <path d="M63.1133 92.8625H1.88662C0.844733 92.8625 0 93.7071 0 94.7492C0 95.7911 0.844733 96.6358 1.88662 96.6358H63.1133C64.1553 96.6358 65 95.7911 65 94.7492C65 93.7073 64.1553 92.8625 63.1133 92.8625Z" fill="white"></path>
  <path d="M10.8701 90.8071H17.4598V86.0678C17.4598 84.5566 18.6833 83.3332 20.1843 83.3332C21.6955 83.3332 22.9189 84.5566 22.9189 86.0678V90.8071H25.6636V86.0678C25.6636 84.5566 26.887 83.3332 28.3981 83.3332C29.8992 83.3332 31.1224 84.5566 31.1224 86.0678V90.8071H33.8775V86.0678C33.8775 84.5566 35.1008 83.3332 36.6019 83.3332C38.113 83.3332 39.3364 84.5566 39.3364 86.0678V90.8071H42.0812V86.0678C42.0812 84.5566 43.3046 83.3332 44.8158 83.3332C46.3167 83.3332 47.5402 84.5566 47.5402 86.0678V90.8071H54.1401C50.5729 87.7536 49.8121 82.5621 53.3794 78.2135C53.8009 77.6994 53.6467 76.9079 53.0401 76.6303C50.5214 75.4995 47.9307 75.4481 45.1859 77.7714C43.3869 75.9003 40.6316 76.1676 39.3878 78.3061C36.6121 74.3789 28.3466 74.4302 25.612 78.3061C24.3681 76.1676 21.6129 75.9005 19.8139 77.7714C17.0692 75.4481 14.4784 75.4995 11.9598 76.6303C11.3532 76.9079 11.1991 77.6994 11.6206 78.2135C15.1673 82.5416 14.4476 87.7435 10.8701 90.8071Z" fill="white"></path>
  <path d="M25.6598 24.7124H39.3405C40.2338 24.7124 40.9578 23.9884 40.9578 23.0951C40.9578 22.2018 40.2338 21.4775 39.3405 21.4775H25.6598C24.7665 21.4775 24.0425 22.2018 24.0425 23.0951C24.0425 23.9882 24.7665 24.7124 25.6598 24.7124Z" fill="white"></path>
</svg>
